<svg xmlns="http://www.w3.org/2000/svg" viewBox="0 0 4230 2000" id="icon" fill="none">
<path fill-rule="evenodd" clip-rule="evenodd" d="M2964.28 984.688H2882.48C2865.98 984.688 2856.98 993.788 2856.98 1010.49V1295.79C2825.18 1249.39 2774.08 1223.69 2711.38 1223.69C2566.98 1223.69 2480.88 1327.89 2480.88 1507.89C2480.88 1687.79 2566.48 1791.89 2710.88 1791.89C2774.88 1791.89 2827.18 1764.89 2859.18 1718.69L2868.18 1759.69C2870.88 1775.09 2880.98 1782.79 2896.38 1782.79H2964.18C2980.68 1782.79 2989.68 1773.89 2989.68 1757.19V1010.49C2989.78 993.688 2980.98 984.688 2964.28 984.688ZM2737.88 1692.69C2666.48 1692.69 2619.08 1632.39 2619.08 1523.19V1492.39C2619.08 1383.39 2666.18 1322.89 2737.88 1322.89C2818.28 1322.89 2859.28 1380.69 2859.28 1507.99C2859.28 1635.29 2818.38 1692.69 2737.88 1692.69Z" fill="#0057AE"/>
<path fill-rule="evenodd" clip-rule="evenodd" d="M3127.67 1377.89C3148.17 1282.89 3234.97 1223.79 3348.77 1223.79C3494.47 1223.79 3567.27 1299.69 3567.37 1431.89V1757.09C3567.37 1773.59 3558.57 1782.69 3541.87 1782.69H3474.07C3458.67 1782.69 3448.37 1774.99 3445.87 1759.59L3438.17 1718.59C3406.37 1764.79 3353.87 1791.79 3288.77 1791.79C3180.17 1791.79 3108.77 1727.29 3108.77 1627.09C3108.77 1510.19 3190.57 1449.89 3363.17 1449.89H3434.57V1429.29C3434.57 1358.59 3405.07 1322.59 3348.97 1322.59C3304.17 1322.59 3278.67 1341.89 3265.87 1383.09C3260.67 1399.89 3251.67 1406.19 3237.67 1406.19H3150.67C3132.87 1406.19 3123.87 1394.69 3127.67 1377.89ZM3325.97 1692.79C3391.07 1692.79 3434.57 1653.19 3434.57 1557.99V1539.99H3368.07C3287.47 1539.99 3246.77 1566.99 3246.67 1622.19C3246.77 1665.89 3278.67 1692.79 3325.97 1692.79Z" fill="#0057AE"/>
<path d="M164.691 1782.89C149.391 1782.89 140.391 1776.49 135.391 1761.09C75.1907 1594.09 34.3907 1428.19 -0.00935107 1261.19C-3.90935 1244.49 3.79066 1232.89 21.5907 1232.89H104.691C120.091 1232.89 130.191 1240.59 132.891 1254.69C154.491 1372.99 180.191 1494.99 214.691 1614.59L314.291 1254.69C318.091 1240.59 328.291 1232.89 343.591 1232.89H456.091C471.391 1232.89 481.591 1240.59 485.391 1254.69L584.991 1614.59C619.491 1495.09 645.191 1372.99 666.792 1254.69C669.292 1240.59 679.692 1232.89 694.992 1232.89H778.092C795.892 1232.89 803.492 1244.39 799.692 1261.19C765.292 1428.19 724.492 1594.09 664.292 1761.09C659.091 1776.49 650.292 1782.89 634.992 1782.89H541.391C527.391 1782.89 515.891 1776.49 512.091 1761.09L399.691 1365.19L287.291 1761.09C283.491 1776.49 271.991 1782.89 257.991 1782.89H164.691Z" fill="#0057AE"/>
<path fill-rule="evenodd" clip-rule="evenodd" d="M1131.79 1223.99C975.885 1223.99 867.285 1337.09 867.285 1507.99C867.285 1678.89 975.885 1791.99 1131.79 1791.99C1287.69 1791.99 1396.29 1677.59 1396.29 1507.99C1396.29 1338.39 1287.69 1223.99 1131.79 1223.99ZM1258.19 1523.29C1258.19 1636.39 1208.39 1700.69 1131.79 1700.69C1055.19 1700.69 1005.39 1636.39 1005.39 1523.29V1492.49C1005.39 1379.39 1055.19 1315.09 1131.79 1315.09C1208.39 1315.09 1258.19 1379.39 1258.19 1492.49V1523.29Z" fill="#0057AE"/>
<path d="M3854.15 1771.11C3772.35 1631.11 3701.65 1451.31 3657.05 1261.21C3653.25 1243.11 3662.25 1232.91 3680.15 1233.01H3763.25C3778.55 1233.01 3788.85 1240.71 3791.35 1256.11C3818.15 1389.81 3860.35 1519.61 3913.95 1627.51C3961.25 1509.21 4004.75 1385.91 4027.75 1256.11C4030.35 1240.71 4040.55 1233.01 4055.85 1233.01H4141.45C4159.25 1233.01 4168.25 1244.61 4163.05 1262.51C4104.25 1497.71 4019.95 1701.91 3947.15 1858.71C3899.85 1960.21 3844.85 2000.11 3745.25 2000.11C3726.15 2000.11 3705.85 1996.21 3689.15 1992.41C3673.85 1988.61 3667.55 1978.21 3667.55 1964.11V1902.41C3667.55 1884.41 3677.95 1877.91 3695.75 1883.11C3711.05 1886.91 3726.35 1889.41 3740.35 1889.41C3799.15 1889.41 3819.65 1850.91 3854.15 1771.11Z" fill="#0057AE"/>
<path d="M1641.77 1302.31C1669.87 1257.21 1719.67 1226.41 1777.17 1226.41C1798.87 1226.41 1817.97 1231.61 1833.37 1243.21C1838.57 1247.11 1842.37 1252.31 1842.37 1260.01V1335.91C1842.37 1353.81 1834.77 1359.01 1815.57 1351.31C1799.97 1344.71 1784.67 1342.21 1766.87 1342.21C1689.07 1342.21 1644.27 1397.51 1644.27 1477.31L1644.37 1757.51C1644.37 1774.01 1635.57 1782.91 1618.87 1782.91H1536.87C1520.37 1782.91 1511.37 1774.11 1511.37 1757.31L1511.27 1258.61C1511.27 1242.11 1520.07 1233.01 1536.77 1233.01H1604.57C1621.27 1233.01 1630.27 1242.01 1632.77 1256.11L1641.77 1302.31Z" fill="#0057AE"/>
<path d="M2408.46 1752.21C2352.36 1636.61 2298.66 1556.91 2223.26 1483.61L2399.66 1265.11C2412.46 1247.01 2406.16 1232.91 2385.66 1232.91H2293.76C2280.96 1232.91 2269.46 1237.91 2261.76 1247.01L2082.86 1475.71V1010.61C2082.86 993.806 2073.86 984.806 2057.16 984.806H1975.36C1958.86 984.806 1949.86 993.906 1949.86 1010.61V1757.31C1949.86 1773.91 1958.66 1782.91 1975.36 1782.91H2057.16C2073.66 1782.91 2082.66 1774.01 2082.66 1757.31L2082.86 1505.51C2162.06 1582.51 2216.96 1664.71 2262.86 1767.51C2268.06 1776.61 2280.66 1782.91 2293.46 1782.91H2394.36C2414.76 1783.01 2418.66 1772.81 2408.46 1752.21Z" fill="#0057AE"/>
<path d="M1172.82 521.973C1423.42 270.973 1756.82 132.773 2111.62 132.773C2465.72 132.773 2798.72 270.673 3049.12 521.073C3192.32 664.273 3298.62 834.372 3363.52 1020.07C3366.32 1028.07 3373.72 1033.37 3382.22 1033.37H3480.62C3494.02 1033.37 3503.72 1020.37 3499.52 1007.57C3429.42 791.072 3308.52 592.773 3143.02 427.173C2867.62 151.673 2501.32 0.0400391 2111.82 0.0400391C1721.62 0.0400391 1354.62 152.073 1078.92 428.173C913.72 593.573 793.219 791.572 723.319 1007.57C719.219 1020.37 728.819 1033.37 742.319 1033.37H840.72C849.22 1033.37 856.62 1027.97 859.42 1020.07C924.02 834.872 1030.02 664.973 1172.82 521.973Z" fill="#FC5B05"/>
</svg>